<?xml version="1.0" encoding="utf-8"?>
<!-- Generator: Adobe Illustrator 15.0.2, SVG Export Plug-In . SVG Version: 6.00 Build 0)  -->
<!DOCTYPE svg PUBLIC "-//W3C//DTD SVG 1.1//EN" "http://www.w3.org/Graphics/SVG/1.1/DTD/svg11.dtd">
<svg version="1.1" id="Layer_1" xmlns="http://www.w3.org/2000/svg"  x="0px" y="0px"
	 width="333px" height="333px" viewBox="0 0 333 333" enable-background="new 0 0 333 333" xml:space="preserve">
<g>
	<path fill="#FFFFFF" d="M166.874,296.315c-65.496,0-118.781-53.284-118.781-118.78c0-65.496,53.285-118.78,118.781-118.78
		s118.78,53.285,118.78,118.78C285.654,243.031,232.37,296.315,166.874,296.315z"/>
	<path fill="#E30613" d="M166.874,81.202c53.204,0,96.334,43.13,96.334,96.333c0,53.204-43.13,96.334-96.334,96.334
		s-96.334-43.13-96.334-96.334C70.54,124.332,113.67,81.202,166.874,81.202 M166.874,36.308c-19.046,0-37.546,3.74-54.986,11.117
		c-16.823,7.116-31.921,17.292-44.877,30.248c-12.956,12.956-23.132,28.055-30.248,44.877c-7.376,17.44-11.117,35.94-11.117,54.986
		s3.74,37.546,11.117,54.986c7.116,16.822,17.292,31.921,30.248,44.877c12.956,12.955,28.054,23.132,44.877,30.247
		c17.44,7.377,35.94,11.117,54.986,11.117s37.546-3.74,54.986-11.117c16.822-7.115,31.921-17.292,44.877-30.247
		c12.955-12.956,23.132-28.055,30.247-44.877c7.377-17.44,11.117-35.94,11.117-54.986s-3.74-37.545-11.117-54.986
		c-7.115-16.822-17.292-31.921-30.247-44.877c-12.956-12.955-28.055-23.132-44.877-30.248
		C204.42,40.048,185.92,36.308,166.874,36.308L166.874,36.308z"/>
</g>
<polygon fill="#FFED00" stroke="#1D1D1B" stroke-width="7" stroke-miterlimit="10" points="234.068,32.982 128.4,164.316 
	153.678,158.09 108.608,220.531 136.777,213.02 87.012,305.508 210.955,165.133 183.401,171.001 218.068,115.982 191.706,121.471 
	"/>
</svg>
